<?xml version="1.0" encoding="UTF-8"?>
<!DOCTYPE svg PUBLIC "-//W3C//DTD SVG 1.1//EN" "http://www.w3.org/Graphics/SVG/1.1/DTD/svg11.dtd">
<svg version="1.1" xmlns="http://www.w3.org/2000/svg" xmlns:xlink="http://www.w3.org/1999/xlink" x="0" y="0" width="516" height="707" viewBox="0, 0, 516, 707">
  <g id="Layer_1">
    <path d="M322.647,52.263 L318.878,54.31 C323.87,63.502 330.109,71.516 337.071,78.566 C347.519,89.144 359.586,97.568 371.659,104.677 C383.731,111.782 395.826,117.579 406.337,122.819 L408.25,118.981 L404.405,120.881 C413.675,139.627 419.53,155.929 426.396,170.557 C429.83,177.867 433.527,184.756 438.054,191.243 C442.58,197.729 447.94,203.801 454.625,209.433 L457.389,206.154 L453.124,205.703 C452.485,211.74 452.208,217.811 452.208,223.895 C452.209,239.326 453.98,254.84 456.164,270.146 C458.35,285.451 460.952,300.551 462.671,315.117 L466.931,314.614 L465.927,310.444 C452.974,313.558 442.815,318.349 434.851,324.444 C428.878,329.009 424.162,334.293 420.421,340.014 C414.805,348.602 411.365,358.127 408.818,367.88 C406.275,377.639 404.615,387.657 402.681,397.349 L406.887,398.187 L404.578,394.573 C397,399.415 390.013,404.986 383.129,410.688 C372.806,419.246 362.704,428.089 351.286,435.408 C339.861,442.73 327.167,448.559 311.435,451.235 L312.152,455.463 L313.758,451.487 C298.973,445.513 284.306,443.364 269.903,443.368 C246.637,443.382 224.024,448.88 201.759,452.937 L202.53,457.156 L205.822,454.407 C191.787,437.592 175.732,424.741 158.002,415.435 C140.272,406.124 120.889,400.356 100.193,397.571 L99.621,401.822 L103.887,401.386 C101.691,379.867 97.103,360.349 89.825,343.056 C82.551,325.766 72.57,310.703 59.674,298.206 L56.689,301.286 L60.466,303.317 C71.09,283.59 74.975,263.861 74.964,244.463 C74.962,227.894 72.169,211.552 68.436,195.386 L64.258,196.352 L66.87,199.753 C82.583,187.689 94.782,173.957 103.913,158.874 C113.048,143.792 119.112,127.378 122.672,109.97 L118.471,109.111 L121.808,111.804 C126.321,106.21 132.103,101.358 138.875,96.819 C149.025,90.006 161.372,83.944 174.535,77.04 C187.696,70.13 201.677,62.359 215.068,51.96 L212.438,48.573 L211.026,52.623 C230.513,59.414 250.048,62.141 269.694,62.139 C287.468,62.138 305.338,59.916 323.448,56.476 L322.647,52.263 L318.878,54.31 L322.647,52.263 L321.847,48.05 C304.088,51.424 286.75,53.562 269.694,53.562 C250.834,53.56 232.325,50.959 213.848,44.523 L211.646,43.757 L209.807,45.186 C192.827,58.38 174.498,67.357 157.721,76.121 C149.334,80.507 141.336,84.844 134.098,89.695 C126.865,94.545 120.377,99.923 115.133,106.417 L114.478,107.229 L114.269,108.251 C110.876,124.828 105.151,140.27 96.577,154.431 C87.999,168.591 76.568,181.488 61.646,192.951 L59.458,194.63 L60.079,197.317 C63.742,213.161 66.39,228.866 66.388,244.463 C66.377,262.742 62.801,280.85 52.913,299.254 L51.376,302.109 L53.705,304.365 C65.711,316.006 75.034,330.03 81.92,346.383 C88.802,362.733 93.229,381.414 95.354,402.257 L95.697,405.62 L99.049,406.072 C118.901,408.745 137.275,414.239 154.015,423.029 C170.754,431.822 185.879,443.909 199.238,459.904 L200.84,461.824 L203.301,461.374 C225.881,457.232 248.012,451.931 269.903,451.945 C283.468,451.949 296.926,453.944 310.546,459.44 L311.672,459.894 L312.87,459.691 C324.225,457.766 334.196,454.282 343.162,449.866 C356.615,443.237 367.798,434.548 378.286,425.886 C388.772,417.215 398.582,408.573 409.195,401.801 L410.734,400.817 L411.092,399.025 C412.84,390.25 414.332,381.484 416.34,373.149 C417.844,366.898 419.636,360.894 422.006,355.306 C425.569,346.916 430.383,339.485 437.57,333.28 C444.763,327.083 454.415,322.042 467.934,318.783 L471.636,317.893 L471.189,314.111 C469.431,299.235 466.816,284.077 464.655,268.934 C462.492,253.792 460.784,238.667 460.785,223.895 C460.785,218.071 461.051,212.302 461.653,206.605 L461.892,204.341 L460.152,202.874 C454.061,197.738 449.238,192.278 445.088,186.334 C438.866,177.426 434.164,167.381 429.253,155.888 C424.34,144.404 419.222,131.503 412.094,117.081 L411.454,115.786 L410.163,115.143 C396.039,108.108 379.61,100.298 364.468,90.004 C356.898,84.861 349.655,79.103 343.175,72.54 C336.693,65.975 330.975,58.61 326.416,50.217 L324.921,47.465 L321.847,48.05 L322.647,52.263" fill="#fff"/>
    <path d="M314.168,82.413 L310.399,84.459 C314.681,92.342 320.03,99.211 325.992,105.249 C334.939,114.307 345.257,121.509 355.562,127.579 C365.867,133.646 376.176,138.589 385.117,143.048 L387.03,139.21 L383.186,141.111 C391.064,157.033 396.042,170.893 401.903,183.386 C404.835,189.628 407.998,195.526 411.879,201.09 C415.758,206.651 420.36,211.867 426.094,216.699 L428.858,213.42 L425,211.547 C420.402,221.009 418.626,231.071 418.63,241.269 C418.633,252.124 420.611,263.174 423.362,274.2 C426.117,285.226 429.656,296.238 432.879,306.97 L436.986,305.737 L435.983,301.567 C424.888,304.234 416.151,308.347 409.291,313.596 C404.146,317.526 400.079,322.082 396.858,327.005 C392.022,334.397 389.072,342.573 386.894,350.912 C384.718,359.257 383.304,367.797 381.661,376.035 L385.867,376.873 L384.664,372.757 C369.342,377.237 354.452,382.962 340.487,390.976 C326.524,398.986 313.495,409.299 301.967,422.854 L305.234,425.633 L305.925,421.4 C298.8,420.237 291.702,419.813 284.634,419.813 C264.339,419.831 244.278,423.243 224.101,423.227 C220.154,423.227 216.202,423.099 212.242,422.797 L211.916,427.073 L215.208,424.324 C203.207,409.95 189.469,398.954 174.305,390.994 C159.14,383.029 142.568,378.099 124.896,375.721 L124.324,379.971 L128.59,379.536 C126.716,361.169 122.798,344.493 116.573,329.702 C110.351,314.915 101.805,302.016 90.761,291.318 L87.777,294.398 L91.554,296.43 C100.652,279.54 103.979,262.625 103.969,246.033 C103.967,231.856 101.58,217.899 98.404,204.122 L94.226,205.085 L96.839,208.485 C110.267,198.163 120.705,186.411 128.517,173.503 C136.333,160.596 141.52,146.551 144.563,131.668 L140.362,130.809 L141.911,134.807 C156.271,129.243 170.709,123.323 184.582,115.146 C198.45,106.974 211.739,96.517 223.667,81.998 L220.354,79.275 L218.943,83.324 C235.604,89.133 252.306,91.463 269.084,91.461 C284.27,91.46 299.524,89.56 314.969,86.625 L314.168,82.413 L310.399,84.459 L314.168,82.413 L313.367,78.199 C298.272,81.069 283.552,82.884 269.084,82.884 C253.092,82.882 237.417,80.677 221.766,75.225 L218.94,74.24 L217.041,76.552 C205.808,90.213 193.409,99.98 180.225,107.758 C167.045,115.531 153.069,121.289 138.813,126.81 L136.63,127.655 L136.161,129.949 C133.284,144.002 128.436,157.074 121.18,169.061 C113.92,181.047 104.25,191.965 91.611,201.685 L89.427,203.364 L90.046,206.049 C93.152,219.507 95.394,232.828 95.392,246.033 C95.381,261.507 92.364,276.801 84,292.366 L82.464,295.221 L84.793,297.478 C94.946,307.32 102.834,319.18 108.667,333.03 C114.497,346.877 118.253,362.717 120.058,380.406 L120.4,383.77 L123.752,384.221 C140.58,386.488 156.142,391.145 170.317,398.588 C184.492,406.035 197.3,416.267 208.624,429.821 L209.784,431.21 L211.589,431.349 C215.798,431.67 219.969,431.803 224.101,431.803 C245.223,431.787 265.325,428.372 284.634,428.39 C291.359,428.39 297.986,428.794 304.543,429.865 L306.932,430.255 L308.501,428.411 C319.356,415.652 331.547,405.998 344.756,398.415 C357.963,390.834 372.199,385.337 387.07,380.989 L389.565,380.26 L390.073,377.71 C391.561,370.228 392.83,362.774 394.533,355.709 C395.809,350.409 397.326,345.333 399.326,340.621 C402.333,333.546 406.375,327.316 412.408,322.108 C418.446,316.909 426.56,312.662 437.989,309.906 L442.398,308.846 L441.093,304.503 C437.838,293.668 434.343,282.774 431.684,272.122 C429.021,261.471 427.204,251.071 427.207,241.269 C427.211,232.042 428.792,223.381 432.716,215.294 L434.173,212.292 L431.623,210.142 C426.482,205.805 422.418,201.201 418.914,196.181 C413.661,188.659 409.676,180.15 405.5,170.377 C401.322,160.612 396.958,149.613 390.874,137.309 L390.234,136.015 L388.943,135.372 C376.915,129.379 362.961,122.74 350.125,114.011 C343.708,109.65 337.576,104.773 332.096,99.223 C326.614,93.67 321.785,87.449 317.936,80.365 L316.441,77.614 L313.367,78.199 L314.168,82.413" fill="#fff"/>
    <path d="M305.156,114.446 L301.388,116.493 C304.915,122.987 309.32,128.643 314.221,133.605 C321.576,141.051 330.038,146.951 338.467,151.916 C346.897,156.879 355.312,160.912 362.583,164.54 L364.497,160.703 L360.652,162.603 C367.042,175.521 371.087,186.789 375.883,197.013 C378.284,202.121 380.881,206.966 384.079,211.546 C387.274,216.125 391.074,220.428 395.801,224.407 L398.563,221.127 L394.706,219.253 C390.895,227.09 389.429,235.418 389.433,243.818 C389.436,252.752 391.06,261.808 393.307,270.821 C395.558,279.833 398.442,288.81 401.062,297.542 L405.17,296.31 L404.167,292.14 C395.045,294.331 387.821,297.726 382.136,302.078 C377.873,305.336 374.499,309.118 371.833,313.196 C367.83,319.319 365.404,326.063 363.617,332.901 C361.833,339.744 360.679,346.711 359.342,353.401 L363.548,354.241 L362.344,350.124 C349.825,353.786 337.639,358.469 326.195,365.036 C314.753,371.599 304.064,380.057 294.613,391.17 L297.88,393.949 L299.486,389.973 C289.056,385.754 278.7,384.24 268.584,384.244 C252.247,384.258 236.5,388.099 221.12,390.899 L221.892,395.118 L225.183,392.369 C215.349,380.587 204.077,371.562 191.634,365.033 C179.192,358.499 165.6,354.46 151.122,352.512 L150.55,356.762 L154.816,356.328 C153.286,341.308 150.082,327.65 144.978,315.517 C139.877,303.387 132.858,292.785 123.783,283.989 L120.798,287.068 L124.575,289.099 C132.047,275.222 134.787,261.297 134.776,247.679 C134.774,236.047 132.817,224.624 130.219,213.376 L126.041,214.342 L128.653,217.742 C139.666,209.285 148.24,199.637 154.654,189.038 C161.072,178.44 165.327,166.91 167.816,154.712 L163.614,153.854 L165.164,157.853 C176.867,153.316 188.671,148.48 200.034,141.784 C211.394,135.092 222.301,126.512 232.079,114.608 L228.766,111.885 L227.354,115.935 C241.02,120.7 254.718,122.611 268.457,122.609 C280.883,122.608 293.349,121.054 305.957,118.659 L305.156,114.446 L301.388,116.493 L305.156,114.446 L304.355,110.232 C292.097,112.563 280.165,114.032 268.457,114.032 C255.504,114.029 242.833,112.245 230.177,107.835 L227.351,106.851 L225.452,109.162 C216.37,120.208 206.354,128.098 195.679,134.395 C185.007,140.688 173.665,145.362 162.064,149.855 L159.88,150.701 L159.412,152.996 C157.09,164.362 153.175,174.919 147.317,184.596 C141.457,194.272 133.65,203.085 123.428,210.941 L121.241,212.621 L121.862,215.308 C124.39,226.233 126.202,237.019 126.2,247.679 C126.189,260.178 123.759,272.485 117.021,285.037 L115.485,287.89 L117.812,290.146 C125.998,298.087 132.36,307.651 137.072,318.843 C141.781,330.033 144.823,342.854 146.283,357.196 L146.625,360.561 L149.978,361.012 C163.612,362.849 176.195,366.615 187.647,372.627 C199.1,378.643 209.441,386.903 218.6,397.866 L220.202,399.786 L222.663,399.336 C238.357,396.451 253.623,392.807 268.584,392.821 C277.861,392.824 287.008,394.185 296.273,397.925 L299.141,399.084 L301.146,396.728 C309.926,386.412 319.776,378.611 330.464,372.475 C341.15,366.342 352.682,361.886 364.751,358.357 L367.245,357.627 L367.753,355.08 C368.97,348.973 370.004,342.913 371.383,337.194 C372.416,332.905 373.64,328.813 375.244,325.03 C377.659,319.35 380.878,314.393 385.68,310.244 C390.489,306.103 396.965,302.7 406.173,300.479 L410.58,299.419 L409.277,295.076 C406.624,286.242 403.784,277.382 401.629,268.744 C399.47,260.106 398.007,251.7 398.01,243.818 C398.014,236.39 399.284,229.463 402.42,223.001 L403.88,219.997 L401.326,217.847 C397.193,214.363 393.932,210.673 391.111,206.636 C386.885,200.589 383.659,193.713 380.265,185.768 C376.869,177.83 373.309,168.854 368.341,158.802 L367.702,157.508 L366.411,156.865 C356.606,151.979 345.279,146.587 334.89,139.523 C329.697,135.994 324.743,132.054 320.324,127.579 C315.904,123.102 312.019,118.095 308.924,112.399 L307.43,109.648 L304.355,110.232 L305.156,114.446" fill="#fff"/>
    <path d="M297.555,141.479 L293.786,143.526 C296.677,148.848 300.285,153.477 304.29,157.531 C310.3,163.613 317.194,168.415 324.042,172.446 C330.889,176.474 337.707,179.738 343.575,182.664 L345.488,178.826 L341.643,180.725 C346.781,191.118 350.037,200.199 353.931,208.511 C355.88,212.662 357.999,216.619 360.617,220.372 C363.233,224.123 366.354,227.658 370.229,230.921 L372.992,227.642 L369.135,225.767 C365.994,232.223 364.791,239.08 364.795,245.956 C364.798,253.275 366.125,260.654 367.95,267.972 C369.778,275.289 372.113,282.554 374.228,289.597 L378.335,288.363 L377.332,284.193 C369.874,285.983 363.924,288.77 359.229,292.363 C355.708,295.052 352.916,298.181 350.717,301.544 C347.414,306.595 345.429,312.13 343.972,317.701 C342.519,323.277 341.585,328.92 340.508,334.307 L344.714,335.146 L343.511,331.029 C333.353,333.998 323.446,337.801 314.131,343.147 C304.819,348.489 296.107,355.386 288.413,364.442 L291.681,367.219 L293.287,363.243 C284.75,359.79 276.271,358.552 268.023,358.555 C254.693,358.57 241.93,361.694 229.537,363.945 L230.309,368.164 L233.6,365.415 C225.592,355.821 216.398,348.457 206.253,343.133 C196.108,337.804 185.033,334.513 173.257,332.928 L172.685,337.178 L176.28,334.841 C168.503,322.861 164.954,312.596 162.135,303.388 C160.727,298.784 159.512,294.437 158.021,290.281 C156.53,286.131 154.75,282.153 152.176,278.446 L148.654,280.894 L152.431,282.925 C158.541,271.592 160.786,260.189 160.775,249.082 C160.773,239.592 159.176,230.302 157.064,221.185 L152.887,222.153 L155.499,225.554 C164.473,218.665 171.473,210.795 176.707,202.149 C181.944,193.503 185.412,184.099 187.44,174.165 L183.238,173.307 L184.79,177.305 C194.252,173.631 203.829,169.707 213.073,164.259 C222.314,158.814 231.21,151.819 239.179,142.123 L235.867,139.399 L234.453,143.448 C245.586,147.337 256.755,148.895 267.935,148.893 C278.034,148.892 288.147,147.631 298.355,145.692 L297.555,141.479 L293.786,143.526 L297.555,141.479 L296.754,137.266 C286.897,139.139 277.316,140.316 267.935,140.316 C257.542,140.314 247.402,138.882 237.281,135.35 L234.455,134.364 L232.555,136.675 C225.28,145.514 217.273,151.821 208.716,156.87 C200.163,161.916 191.047,165.679 181.687,169.309 L179.504,170.155 L179.036,172.448 C177.175,181.552 174.046,189.982 169.37,197.706 C164.69,205.429 158.459,212.463 150.274,218.752 L148.085,220.433 L148.708,223.122 C150.749,231.915 152.201,240.565 152.199,249.082 C152.188,259.069 150.252,268.852 144.877,278.861 L143.63,281.179 L145.132,283.34 C147.116,286.195 148.602,289.428 149.949,293.18 C151.973,298.798 153.639,305.551 156.34,313.323 C159.043,321.095 162.815,329.868 169.088,339.515 L170.161,341.165 L172.112,341.428 C183.044,342.902 193.11,345.919 202.265,350.726 C211.42,355.538 219.685,362.138 227.017,370.913 L228.619,372.832 L231.08,372.383 C243.788,370.046 256.07,367.118 268.023,367.132 C275.432,367.136 282.702,368.22 290.074,371.195 L292.943,372.355 L294.948,369.997 C301.971,361.738 309.843,355.501 318.401,350.586 C326.958,345.674 336.209,342.098 345.917,339.262 L348.411,338.534 L348.919,335.985 C349.905,331.037 350.739,326.152 351.844,321.57 C352.671,318.134 353.649,314.872 354.921,311.876 C356.836,307.374 359.363,303.494 363.13,300.239 C366.903,296.993 372,294.302 379.337,292.532 L383.747,291.472 L382.442,287.129 C380.294,279.984 378.004,272.838 376.271,265.894 C374.536,258.952 373.369,252.221 373.372,245.956 C373.375,240.053 374.383,234.596 376.849,229.516 L378.308,226.513 L375.755,224.362 C372.474,221.595 369.892,218.672 367.651,215.463 C364.293,210.658 361.711,205.16 358.978,198.755 C356.243,192.357 353.362,185.084 349.333,176.927 L348.693,175.632 L347.401,174.988 C339.467,171.039 330.355,166.702 322.033,161.044 C317.872,158.218 313.914,155.07 310.392,151.504 C306.869,147.936 303.781,143.956 301.323,139.432 L299.828,136.681 L296.754,137.266 L297.555,141.479" fill="#fff"/>
    <path d="M289.043,171.754 L285.274,173.8 C287.45,177.808 290.163,181.288 293.163,184.325 C297.665,188.882 302.801,192.455 307.874,195.443 C312.946,198.428 317.971,200.835 322.259,202.977 L324.175,199.14 L320.329,201.039 C324.065,208.593 326.444,215.225 329.335,221.393 C330.783,224.472 332.368,227.434 334.34,230.257 C336.309,233.079 338.669,235.751 341.589,238.207 L344.352,234.926 L340.495,233.051 C338.098,237.973 337.189,243.192 337.193,248.365 C337.196,253.871 338.191,259.365 339.54,264.777 C340.892,270.187 342.609,275.525 344.153,280.671 L348.261,279.438 L347.254,275.269 C341.662,276.615 337.142,278.726 333.557,281.473 C330.869,283.528 328.73,285.926 327.056,288.49 C324.539,292.342 323.049,296.523 321.964,300.674 C320.882,304.829 320.196,308.986 319.411,312.909 L323.617,313.748 L322.414,309.632 C314.903,311.829 307.554,314.647 300.624,318.623 C293.695,322.595 287.196,327.738 281.459,334.483 L284.726,337.262 L286.333,333.287 C279.922,330.689 273.545,329.761 267.387,329.765 C257.433,329.779 248.01,332.095 238.96,333.729 L239.729,337.949 L243.022,335.201 C237.064,328.058 230.2,322.558 222.63,318.586 C215.06,314.611 206.804,312.163 198.059,310.99 L197.488,315.241 L201.755,314.808 C200.838,305.774 198.905,297.515 195.798,290.138 C192.695,282.765 188.401,276.277 182.85,270.896 L179.864,273.975 L183.641,276.007 C188.222,267.514 189.909,258.932 189.898,250.635 C189.896,243.552 188.708,236.663 187.158,229.944 L182.979,230.91 L185.593,234.309 C192.273,229.175 197.505,223.293 201.417,216.832 C205.331,210.371 207.922,203.349 209.437,195.959 L205.236,195.097 L206.789,199.095 C213.733,196.396 220.812,193.497 227.679,189.447 C234.543,185.403 241.184,180.182 247.121,172.963 L243.81,170.238 L242.396,174.287 C250.689,177.183 259.01,178.341 267.307,178.339 C274.812,178.338 282.304,177.4 289.844,175.967 L289.043,171.754 L285.274,173.8 L289.043,171.754 L288.242,167.541 C281.052,168.909 274.093,169.762 267.307,169.762 C259.796,169.759 252.504,168.728 245.222,166.188 L242.398,165.203 L240.498,167.512 C235.255,173.877 229.502,178.409 223.321,182.06 C217.144,185.706 210.525,188.445 203.684,191.099 L201.505,191.945 L201.035,194.235 C199.687,200.796 197.435,206.847 194.08,212.388 C190.722,217.928 186.256,222.977 180.365,227.51 L178.18,229.19 L178.801,231.875 C180.281,238.272 181.323,244.524 181.321,250.635 C181.311,257.813 179.933,264.775 176.087,271.942 L174.551,274.796 L176.878,277.053 C181.543,281.581 185.18,287.032 187.894,293.468 C190.604,299.901 192.375,307.321 193.221,315.673 L193.563,319.04 L196.917,319.491 C204.817,320.553 212.063,322.727 218.643,326.18 C225.223,329.638 231.157,334.374 236.437,340.696 L238.038,342.616 L240.498,342.168 C249.866,340.447 258.81,338.327 267.387,338.342 C272.707,338.345 277.872,339.119 283.117,341.237 L285.985,342.398 L287.991,340.041 C293.058,334.092 298.718,329.608 304.892,326.062 C311.064,322.52 317.759,319.929 324.82,317.864 L327.314,317.135 L327.823,314.587 C328.549,310.939 329.158,307.373 329.956,304.066 C330.552,301.586 331.253,299.255 332.151,297.138 C333.506,293.955 335.256,291.277 337.863,289.021 C340.475,286.773 344.027,284.877 349.267,283.607 L353.671,282.544 L352.368,278.205 C350.791,272.956 349.118,267.736 347.861,262.698 C346.601,257.662 345.767,252.817 345.77,248.365 C345.773,244.165 346.486,240.348 348.208,236.801 L349.668,233.797 L347.113,231.645 C344.788,229.685 342.966,227.625 341.372,225.345 C338.984,221.933 337.117,217.978 335.12,213.3 C333.121,208.63 330.996,203.269 328.02,197.24 L327.381,195.946 L326.09,195.302 C320.26,192.398 313.633,189.237 307.626,185.151 C304.624,183.111 301.782,180.848 299.266,178.299 C296.748,175.748 294.554,172.917 292.812,169.708 L291.317,166.956 L288.242,167.541 L289.043,171.754" fill="#fff"/>
    <path d="M282.984,193.278 L279.215,195.325 C280.885,198.4 282.964,201.064 285.25,203.378 C288.684,206.851 292.573,209.551 296.385,211.798 C300.199,214.041 303.952,215.838 307.121,217.421 L309.036,213.583 L305.192,215.486 C307.935,221.016 309.688,225.9 311.86,230.542 C312.949,232.858 314.151,235.112 315.659,237.276 C317.165,239.438 318.981,241.499 321.219,243.386 L323.985,240.109 L320.127,238.236 C318.268,242.061 317.569,246.108 317.573,250.067 C317.576,254.285 318.334,258.442 319.345,262.504 C320.359,266.565 321.637,270.54 322.778,274.346 L326.886,273.114 L325.883,268.944 C321.617,269.967 318.112,271.592 315.316,273.734 C313.22,275.335 311.546,277.213 310.244,279.207 C308.285,282.205 307.146,285.422 306.323,288.563 C305.503,291.708 304.99,294.809 304.409,297.692 L308.614,298.536 L307.41,294.419 C301.792,296.063 296.262,298.183 291.026,301.188 C285.793,304.19 280.864,308.089 276.523,313.192 L279.789,315.972 L281.397,311.996 C276.496,310.01 271.615,309.303 266.944,309.306 C259.383,309.321 252.333,311.066 245.667,312.269 L246.438,316.488 L249.729,313.739 C245.222,308.337 240.013,304.16 234.274,301.148 C228.535,298.133 222.286,296.281 215.695,295.393 L215.122,299.644 L219.388,299.209 C218.698,292.428 217.244,286.199 214.89,280.609 C212.539,275.022 209.27,270.079 205.036,265.98 L202.052,269.06 L205.829,271.091 C209.32,264.62 210.612,258.046 210.601,251.748 C210.599,246.374 209.7,241.185 208.54,236.163 L204.362,237.129 L206.976,240.529 C212.029,236.647 216.008,232.178 218.979,227.267 C221.952,222.357 223.914,217.022 225.046,211.433 L220.844,210.581 L222.394,214.579 C227.562,212.572 232.874,210.403 238.057,207.35 C243.237,204.302 248.276,200.344 252.769,194.883 L249.459,192.157 L248.046,196.206 C254.321,198.396 260.618,199.269 266.866,199.267 C272.524,199.266 278.148,198.56 283.784,197.492 L282.984,193.278 L279.215,195.325 L282.984,193.278 L282.185,189.065 C276.898,190.068 271.806,190.69 266.866,190.69 C261.404,190.687 256.134,189.94 250.871,188.107 L248.048,187.123 L246.148,189.43 C242.35,194.037 238.199,197.307 233.702,199.961 C229.209,202.611 224.358,204.62 219.293,206.582 L217.107,207.43 L216.641,209.727 C215.675,214.479 214.054,218.837 211.641,222.825 C209.225,226.812 206.012,230.447 201.748,233.729 L199.563,235.409 L200.184,238.096 C201.273,242.795 202.026,247.345 202.024,251.748 C202.014,256.926 201.031,261.881 198.274,267.029 L196.739,269.884 L199.067,272.14 C202.413,275.384 205.024,279.291 206.986,283.939 C208.944,288.585 210.235,293.976 210.855,300.077 L211.197,303.441 L214.549,303.894 C220.296,304.67 225.536,306.248 230.285,308.742 C235.035,311.24 239.314,314.653 243.146,319.236 L244.748,321.155 L247.208,320.706 C254.191,319.418 260.761,317.869 266.944,317.883 C270.776,317.887 274.446,318.441 278.181,319.948 L281.048,321.108 L283.055,318.752 C286.725,314.443 290.816,311.201 295.296,308.627 C299.774,306.055 304.651,304.163 309.818,302.652 L312.308,301.923 L312.819,299.379 C313.364,296.654 313.816,294.024 314.397,291.622 C314.832,289.82 315.336,288.15 315.97,286.658 C316.929,284.413 318.127,282.593 319.906,281.051 C321.692,279.516 324.144,278.19 327.888,277.283 L332.296,276.223 L330.993,271.881 C329.819,267.973 328.585,264.116 327.667,260.428 C326.744,256.741 326.147,253.232 326.15,250.067 C326.154,247.081 326.657,244.433 327.843,241.981 L329.298,238.981 L326.751,236.831 C325.106,235.441 323.828,233.992 322.695,232.371 C321.001,229.946 319.646,227.086 318.173,223.636 C316.699,220.193 315.111,216.192 312.879,211.681 L312.24,210.389 L310.951,209.746 C306.613,207.586 301.75,205.262 297.388,202.294 C295.207,200.813 293.157,199.178 291.354,197.351 C289.548,195.523 287.989,193.508 286.753,191.232 L285.259,188.481 L282.185,189.065 L282.984,193.278" fill="#fff"/>
    <path d="M277.177,213.928 L273.409,215.976 C274.592,218.154 276.063,220.035 277.665,221.655 C280.071,224.088 282.763,225.95 285.366,227.484 C287.97,229.014 290.501,230.223 292.597,231.267 L294.508,227.428 L290.663,229.328 C292.448,232.93 293.602,236.145 295.089,239.323 C295.835,240.908 296.673,242.482 297.74,244.012 C298.804,245.541 300.101,247.014 301.687,248.352 L304.456,245.078 L300.598,243.204 C299.248,245.978 298.75,248.905 298.754,251.702 C298.757,254.685 299.289,257.56 299.975,260.326 C300.666,263.091 301.522,265.756 302.274,268.271 L306.383,267.041 L305.382,262.871 C302.386,263.587 299.854,264.747 297.813,266.31 C296.283,267.476 295.054,268.856 294.108,270.305 C292.685,272.486 291.882,274.781 291.313,276.955 C290.747,279.134 290.404,281.223 290.023,283.112 L294.229,283.955 L293.028,279.837 C289.209,280.951 285.418,282.398 281.809,284.469 C278.202,286.537 274.787,289.241 271.793,292.769 L275.062,295.545 L276.664,291.567 C273.203,290.17 269.75,289.673 266.498,289.677 C261.241,289.691 256.471,290.88 252.091,291.669 L252.864,295.888 L256.152,293.135 C253.039,289.41 249.42,286.507 245.438,284.418 C241.456,282.325 237.131,281.046 232.603,280.436 L232.029,284.686 L236.296,284.254 C235.827,279.627 234.833,275.343 233.202,271.467 C231.573,267.593 229.289,264.13 226.326,261.256 L223.339,264.333 L227.115,266.365 C229.561,261.841 230.469,257.198 230.458,252.824 C230.456,249.084 229.834,245.524 229.056,242.126 L224.876,243.085 L227.484,246.489 C230.982,243.812 233.758,240.7 235.826,237.28 C237.898,233.861 239.26,230.152 240.052,226.3 L235.852,225.435 L237.406,229.432 C240.853,228.09 244.46,226.619 248.022,224.521 C251.581,222.426 255.082,219.678 258.186,215.901 L254.875,213.176 L253.461,217.225 C257.811,218.745 262.181,219.35 266.476,219.347 C270.355,219.347 274.18,218.864 277.979,218.141 L277.177,213.928 L273.409,215.976 L277.177,213.928 L276.374,209.715 C272.927,210.372 269.637,210.771 266.476,210.77 C262.968,210.768 259.627,210.29 256.288,209.127 L253.463,208.141 L251.563,210.45 C249.155,213.372 246.542,215.432 243.665,217.133 C240.792,218.829 237.644,220.139 234.297,221.438 L232.122,222.284 L231.651,224.571 C231.026,227.599 230.001,230.339 228.49,232.837 C226.975,235.334 224.97,237.607 222.268,239.681 L220.079,241.358 L220.696,244.045 C221.406,247.128 221.883,250.055 221.881,252.824 C221.871,256.082 221.271,259.103 219.562,262.302 L218.027,265.154 L220.352,267.41 C222.431,269.432 224.058,271.86 225.297,274.795 C226.533,277.727 227.363,281.172 227.762,285.118 L228.103,288.483 L231.456,288.936 C235.14,289.434 238.455,290.439 241.449,292.011 C244.442,293.587 247.135,295.729 249.576,298.64 L251.179,300.556 L253.637,300.106 C258.327,299.232 262.612,298.24 266.498,298.254 C268.913,298.258 271.16,298.601 273.459,299.523 L276.326,300.678 L278.33,298.322 C280.653,295.591 283.229,293.547 286.079,291.908 C288.928,290.272 292.062,289.053 295.429,288.071 L297.923,287.344 L298.433,284.797 C298.801,282.955 299.099,281.222 299.47,279.687 C299.747,278.535 300.063,277.5 300.441,276.608 C301.018,275.262 301.687,274.264 302.674,273.406 C303.668,272.555 305.066,271.773 307.383,271.212 L311.791,270.154 L310.491,265.811 C309.706,263.192 308.893,260.644 308.297,258.251 C307.698,255.86 307.328,253.632 307.331,251.702 C307.335,249.878 307.637,248.351 308.313,246.951 L309.769,243.954 L307.225,241.803 C306.229,240.958 305.466,240.094 304.775,239.106 C303.742,237.63 302.875,235.823 301.906,233.551 C300.935,231.288 299.865,228.59 298.352,225.528 L297.711,224.232 L296.418,223.589 C293.518,222.15 290.35,220.631 287.566,218.736 C286.176,217.792 284.886,216.761 283.767,215.627 C282.646,214.492 281.695,213.26 280.944,211.88 L279.449,209.129 L276.374,209.715 L277.177,213.928" fill="#fff"/>
    <path d="M272.752,229.689 L268.98,231.731 C269.791,233.227 270.795,234.51 271.873,235.602 C273.493,237.241 275.269,238.463 276.947,239.454 C278.625,240.442 280.222,241.206 281.493,241.844 L283.416,238.011 L279.569,239.907 C280.62,242.029 281.311,243.968 282.274,246.034 C282.758,247.063 283.32,248.122 284.054,249.17 C284.785,250.217 285.692,251.242 286.789,252.162 L289.548,248.878 L285.696,246.993 C284.725,248.969 284.378,251.048 284.382,252.962 C284.385,255 284.744,256.894 285.185,258.668 C285.63,260.44 286.168,262.101 286.626,263.626 L290.732,262.388 L289.725,258.219 C287.699,258.706 285.911,259.515 284.449,260.638 C283.354,261.474 282.464,262.473 281.791,263.506 C280.775,265.062 280.229,266.652 279.851,268.088 C279.477,269.528 279.264,270.846 279.036,271.975 L283.242,272.813 L282.046,268.695 C279.604,269.404 277.142,270.342 274.775,271.702 C272.411,273.058 270.149,274.848 268.174,277.163 L271.436,279.949 L273.04,275.971 C270.689,275.02 268.334,274.685 266.172,274.688 C262.668,274.702 259.634,275.475 256.991,275.95 L257.771,280.167 L261.066,277.422 C259.02,274.961 256.611,273.02 253.965,271.635 C251.32,270.245 248.459,269.41 245.508,269.018 L244.942,273.269 L249.208,272.835 C248.905,269.854 248.262,267.052 247.182,264.482 C246.104,261.916 244.571,259.584 242.572,257.656 L239.593,260.741 L243.375,262.763 C245.012,259.722 245.632,256.557 245.621,253.651 C245.619,251.16 245.206,248.846 244.708,246.69 L240.53,247.66 L243.146,251.058 C245.451,249.287 247.306,247.209 248.687,244.925 C250.07,242.643 250.975,240.173 251.495,237.642 L247.295,236.777 L248.846,240.775 C250.992,239.94 253.303,239.001 255.627,237.63 C257.949,236.264 260.273,234.439 262.317,231.952 L259.008,229.226 L257.6,233.276 C260.473,234.277 263.359,234.672 266.157,234.669 C268.681,234.669 271.137,234.357 273.547,233.903 L272.752,229.689 L268.98,231.731 L272.752,229.689 L271.956,225.475 C269.894,225.865 267.966,226.093 266.157,226.092 C264.144,226.09 262.282,225.821 260.416,225.175 L257.595,224.195 L255.698,226.498 C254.346,228.133 252.906,229.272 251.267,230.245 C249.63,231.213 247.782,231.989 245.743,232.779 L243.565,233.624 L243.094,235.911 C242.742,237.618 242.175,239.118 241.35,240.482 C240.522,241.845 239.432,243.09 237.914,244.261 L235.729,245.943 L236.353,248.629 C236.78,250.462 237.046,252.136 237.044,253.651 C237.034,255.437 236.724,256.988 235.811,258.718 L234.283,261.575 L236.613,263.825 C237.715,264.893 238.588,266.182 239.276,267.81 C239.961,269.434 240.442,271.399 240.676,273.703 L241.018,277.073 L244.376,277.52 C246.483,277.801 248.329,278.364 249.979,279.229 C251.628,280.098 253.104,281.27 254.475,282.911 L256.08,284.84 L258.549,284.384 C261.496,283.826 264.043,283.251 266.172,283.265 C267.496,283.269 268.644,283.451 269.831,283.926 L272.692,285.08 L274.696,282.734 C276.006,281.204 277.438,280.068 279.049,279.139 C280.659,278.213 282.458,277.506 284.438,276.932 L286.939,276.205 L287.448,273.651 C287.678,272.489 287.859,271.444 288.07,270.573 C288.227,269.92 288.398,269.37 288.583,268.935 C288.87,268.276 289.136,267.903 289.523,267.562 C289.917,267.228 290.514,266.859 291.74,266.557 L296.147,265.491 L294.838,261.15 C294.347,259.524 293.854,257.983 293.505,256.585 C293.153,255.189 292.956,253.945 292.958,252.962 C292.962,252.026 293.111,251.359 293.399,250.764 L294.874,247.752 L292.307,245.595 C291.803,245.169 291.435,244.755 291.08,244.251 C290.553,243.503 290.063,242.504 289.48,241.133 C288.896,239.771 288.225,238.069 287.263,236.115 L286.626,234.823 L285.338,234.178 C283.524,233.273 281.646,232.363 280.068,231.287 C279.28,230.751 278.573,230.181 277.978,229.578 C277.382,228.974 276.899,228.341 276.523,227.646 L275.032,224.894 L271.956,225.475 L272.752,229.689" fill="#fff"/>
    <path d="M269.997,239.443 L266.226,241.486 C266.808,242.56 267.526,243.476 268.282,244.242 C269.419,245.392 270.632,246.22 271.74,246.874 C272.849,247.526 273.87,248.01 274.632,248.392 L276.546,244.554 L272.706,246.463 C273.31,247.669 273.719,248.815 274.355,250.185 C274.676,250.865 275.062,251.601 275.583,252.348 C276.102,253.095 276.76,253.843 277.546,254.503 L280.31,251.223 L276.454,249.344 C275.732,250.82 275.479,252.364 275.483,253.728 C275.486,255.186 275.739,256.475 276.028,257.637 C276.32,258.799 276.66,259.842 276.935,260.761 L281.042,259.525 L280.036,255.356 C278.613,255.696 277.287,256.284 276.184,257.131 C275.356,257.761 274.678,258.522 274.173,259.296 C273.411,260.463 273.023,261.615 272.765,262.591 C272.51,263.573 272.375,264.411 272.241,265.067 L276.446,265.91 L275.242,261.793 C273.657,262.258 272.021,262.877 270.421,263.796 C268.823,264.711 267.273,265.936 265.929,267.512 L269.188,270.3 L270.787,266.321 C269.119,265.646 267.44,265.413 265.953,265.416 C263.548,265.43 261.598,265.937 260.04,266.211 L260.818,270.429 L264.106,267.675 C262.716,266.011 261.057,264.678 259.245,263.73 C257.432,262.778 255.486,262.21 253.518,261.944 L252.942,266.194 L257.208,265.746 C257.001,263.788 256.574,261.91 255.833,260.153 C255.096,258.399 254.027,256.768 252.63,255.419 L249.647,258.5 L253.419,260.541 C254.581,258.416 255.018,256.153 255.007,254.157 C255.005,252.437 254.724,250.897 254.414,249.525 L250.232,250.477 L252.846,253.876 C254.414,252.674 255.699,251.237 256.652,249.659 C257.608,248.081 258.229,246.382 258.584,244.673 L254.386,243.798 L255.929,247.799 C257.264,247.282 258.775,246.675 260.338,245.754 C261.897,244.837 263.499,243.581 264.886,241.883 L261.57,239.164 L260.156,243.212 C262.11,243.897 264.078,244.164 265.941,244.162 C267.637,244.161 269.253,243.95 270.801,243.655 L269.997,239.443 L266.226,241.486 L269.997,239.443 L269.193,235.23 C267.994,235.46 266.913,235.585 265.941,235.585 C264.865,235.583 263.927,235.442 262.984,235.115 L260.155,234.126 L258.254,236.444 C257.563,237.28 256.851,237.848 255.977,238.369 C255.105,238.885 254.063,239.328 252.842,239.797 L250.663,240.637 L250.187,242.923 C250,243.815 249.715,244.554 249.315,245.216 C248.913,245.877 248.393,246.478 247.618,247.077 L245.441,248.75 L246.05,251.428 C246.296,252.498 246.433,253.412 246.431,254.157 C246.42,255.041 246.29,255.672 245.875,256.459 L244.327,259.319 L246.665,261.582 C247.173,262.078 247.582,262.669 247.931,263.487 C248.275,264.303 248.542,265.35 248.677,266.641 L249.028,269.991 L252.366,270.443 C253.489,270.597 254.431,270.891 255.258,271.325 C256.086,271.762 256.819,272.338 257.53,273.182 L259.136,275.1 L261.596,274.646 C263.451,274.29 264.913,273.979 265.953,273.993 C266.606,273.997 267.081,274.079 267.588,274.279 L270.444,275.427 L272.446,273.088 C273.128,272.294 273.849,271.722 274.694,271.233 C275.539,270.747 276.519,270.356 277.65,270.026 L280.141,269.297 L280.651,266.752 C280.798,266.009 280.907,265.39 281.02,264.931 C281.103,264.587 281.185,264.337 281.25,264.187 C281.355,263.955 281.371,263.97 281.383,263.953 C281.401,263.943 281.5,263.832 282.048,263.694 L286.456,262.63 L285.148,258.289 C284.839,257.264 284.543,256.337 284.347,255.55 C284.147,254.764 284.057,254.127 284.06,253.728 C284.064,253.347 284.116,253.207 284.165,253.102 L285.629,250.096 L283.072,247.943 C282.882,247.781 282.763,247.647 282.618,247.442 C282.406,247.143 282.146,246.636 281.798,245.817 C281.449,245.007 281.017,243.916 280.386,242.645 L279.745,241.357 L278.459,240.716 C277.33,240.157 276.256,239.633 275.426,239.064 C275.012,238.782 274.663,238.498 274.39,238.22 C274.116,237.942 273.918,237.676 273.768,237.399 L272.273,234.642 L269.193,235.23 L269.997,239.443" fill="#fff"/>
    <path d="M268.172,245.956 L264.395,247.987 C264.821,248.782 265.348,249.452 265.888,250 C266.703,250.825 267.541,251.389 268.273,251.82 C269.006,252.248 269.65,252.549 270.087,252.764 L271.973,248.913 L268.116,250.788 C268.419,251.403 268.643,252.039 269.068,252.958 C269.282,253.414 269.557,253.938 269.942,254.487 C270.325,255.035 270.823,255.595 271.406,256.08 L274.156,252.79 L270.303,250.907 C269.741,252.05 269.55,253.243 269.554,254.246 C269.557,255.312 269.737,256.198 269.925,256.955 C270.117,257.711 270.327,258.345 270.484,258.863 L274.584,257.603 L273.576,253.434 C272.554,253.678 271.534,254.12 270.668,254.784 C270.02,255.277 269.481,255.881 269.088,256.483 C268.494,257.393 268.212,258.254 268.033,258.924 C267.857,259.6 267.774,260.117 267.702,260.459 L271.904,261.317 L270.688,257.204 C269.681,257.502 268.601,257.908 267.518,258.527 C266.437,259.143 265.362,259.986 264.442,261.062 L267.698,263.854 L269.283,259.869 C268.079,259.386 266.861,259.221 265.83,259.225 C264.146,259.239 262.916,259.572 262.078,259.709 L262.834,263.93 L266.124,261.18 C265.177,260.042 264.019,259.107 262.755,258.449 C261.491,257.788 260.144,257.404 258.817,257.231 L258.26,261.483 L262.528,261.068 C262.402,259.777 262.12,258.502 261.605,257.279 C261.094,256.06 260.335,254.896 259.339,253.934 L256.354,257.014 L260.12,259.066 C260.958,257.549 261.28,255.887 261.27,254.488 C261.268,253.283 261.072,252.255 260.875,251.392 L256.696,252.355 L259.299,255.763 C260.386,254.936 261.298,253.92 261.967,252.809 C262.639,251.697 263.068,250.508 263.307,249.347 L259.107,248.478 L260.648,252.48 C261.452,252.169 262.426,251.782 263.477,251.163 C264.523,250.548 265.632,249.678 266.582,248.523 L263.276,245.791 L261.858,249.838 C263.208,250.313 264.567,250.493 265.812,250.49 C266.945,250.49 267.989,250.351 268.955,250.173 L268.172,245.956 L264.395,247.987 L268.172,245.956 L267.389,241.74 C266.752,241.859 266.228,241.914 265.812,241.914 C265.347,241.911 265.021,241.856 264.694,241.743 L261.873,240.756 L259.97,243.059 C259.704,243.375 259.473,243.561 259.112,243.779 C258.754,243.993 258.252,244.214 257.566,244.476 L255.381,245.317 L254.908,247.609 C254.835,247.953 254.74,248.182 254.626,248.372 C254.508,248.562 254.371,248.732 254.093,248.947 L251.896,250.625 L252.517,253.318 C252.646,253.87 252.695,254.265 252.693,254.488 C252.682,254.767 252.671,254.789 252.589,254.961 L251.028,257.823 L253.37,260.093 C253.479,260.202 253.582,260.333 253.701,260.61 C253.817,260.883 253.934,261.307 253.991,261.897 L254.32,265.291 L257.702,265.735 C258.181,265.799 258.513,265.911 258.781,266.05 C259.049,266.194 259.274,266.363 259.543,266.68 L261.139,268.59 L263.59,268.151 C264.75,267.93 265.508,267.788 265.83,267.802 C266.035,267.806 266.061,267.821 266.113,267.839 L268.959,268.971 L270.954,266.645 C271.203,266.359 271.443,266.166 271.779,265.97 C272.114,265.779 272.552,265.597 273.12,265.429 L275.59,264.699 L276.106,262.175 C276.2,261.706 276.262,261.365 276.31,261.176 L276.349,261.031 L276.356,261.01 L276.269,260.979 L276.354,261.014 L276.356,261.01 L276.269,260.979 L276.354,261.014 L275.043,260.481 L275.967,261.525 C276.208,261.318 276.349,261.043 276.354,261.014 L275.043,260.481 L275.967,261.525 L275.002,260.434 L275.651,261.742 C275.729,261.704 275.853,261.627 275.967,261.525 L275.002,260.434 L275.651,261.742 L275.333,261.1 L275.573,261.776 L275.651,261.742 L275.333,261.1 L275.573,261.776 L275.545,261.696 L275.569,261.777 L275.573,261.776 L275.545,261.696 L275.569,261.777 L275.591,261.771 L280.021,260.701 L278.683,256.343 C278.496,255.739 278.335,255.233 278.243,254.86 C278.146,254.487 278.128,254.256 278.131,254.246 L277.522,254.246 L278.115,254.368 L278.131,254.246 L277.522,254.246 L278.115,254.368 L276.853,254.107 L278.009,254.672 C278.063,254.562 278.099,254.448 278.115,254.368 L276.853,254.107 L278.009,254.672 L279.484,251.653 L276.906,249.499 L276.68,249.77 L276.94,249.532 L276.906,249.499 L276.68,249.77 L276.94,249.532 L276.731,249.722 L276.96,249.556 L276.94,249.532 L276.731,249.722 L276.96,249.556 C276.96,249.556 276.94,249.529 276.893,249.437 C276.821,249.302 276.698,249.022 276.526,248.609 C276.354,248.197 276.13,247.657 275.829,247.037 L275.183,245.709 L273.858,245.06 C273.189,244.738 272.653,244.469 272.325,244.241 C272.161,244.131 272.054,244.038 272,243.983 L271.951,243.928 L271.946,243.921 L271.892,243.956 L271.949,243.925 L271.946,243.921 L271.892,243.956 L271.949,243.925 L270.466,241.168 L267.389,241.74 L268.172,245.956" fill="#fff"/>
    <path d="M275.644,252.812 L451.732,89.191 L445.894,82.907 L269.805,246.529" fill="#fff"/>
    <path d="M275.644,252.812 L451.732,89.191 L445.894,82.907 L269.805,246.529" fill="#fff"/>
    <path d="M269.979,247.113 L335.467,22.189 L327.232,19.791 L261.744,244.716" fill="#fff"/>
    <path d="M263.868,245.52 L208.911,4.345 L200.548,6.251 L255.505,247.425" fill="#fff"/>
    <path d="M255.379,247.232 L84.139,63.632 L77.867,69.482 L249.107,253.083" fill="#fff"/>
    <path d="M253.957,253.574 L18.538,178.795 L15.942,186.969 L251.361,261.748" fill="#fff"/>
    <path d="M250.202,260.744 L3.857,307.735 L5.464,316.16 L251.809,269.169" fill="#fff"/>
    <path d="M253.092,264.256 L64.949,425.788 L70.537,432.295 L258.679,270.764" fill="#fff"/>
    <path d="M257.225,262.469 L193.01,484.304 L201.249,486.689 L265.464,264.854" fill="#fff"/>
    <path d="M263.521,261.952 L317.976,496.696 L326.331,494.758 L271.875,260.014" fill="#fff"/>
    <path d="M271.853,262.377 L442.121,444.762 L448.391,438.909 L278.123,256.524" fill="#fff"/>
    <path d="M510.005,325.683 L295.372,254.957 L509.805,196.362 L507.544,188.089 L265.64,254.191 L507.321,333.829 L510.005,325.683" fill="#fff"/>
    <path d="M271.229,255.424 L266.955,255.074 C266.916,255.538 266.721,255.895 266.458,256.149 C266.187,256.4 265.905,256.508 265.612,256.509 L265.501,256.505 L265.511,256.505 C265.202,256.477 264.95,256.351 264.707,256.086 C264.472,255.819 264.311,255.445 264.311,255.007 L264.315,254.89 L264.318,254.848 C264.357,254.382 264.552,254.023 264.819,253.766 C265.093,253.511 265.384,253.4 265.682,253.399 L265.761,253.402 L265.767,253.402 C266.076,253.432 266.32,253.555 266.563,253.82 C266.796,254.085 266.961,254.466 266.961,254.918 L266.954,255.093 L266.961,254.989 L266.955,255.074 L271.229,255.424 L275.505,255.755 C275.526,255.481 275.538,255.202 275.538,254.918 C275.538,252.361 274.601,249.968 273,248.152 C271.41,246.334 269.09,245.067 266.473,244.854 L266.479,244.855 C266.2,244.831 265.932,244.822 265.682,244.822 C263.072,244.821 260.667,245.873 258.911,247.549 C257.147,249.221 255.977,251.56 255.769,254.162 L255.772,254.115 L255.772,254.121 C255.743,254.444 255.734,254.74 255.734,255.007 C255.734,257.569 256.682,259.961 258.285,261.771 C259.88,263.582 262.197,264.843 264.811,265.054 L264.821,265.055 C265.078,265.075 265.341,265.086 265.612,265.086 C268.217,265.088 270.619,264.035 272.37,262.363 C274.128,260.693 275.292,258.364 275.503,255.774 L275.505,255.755 L271.229,255.424" fill="#fff"/>
    <path d="M307.22,645.644 C307.22,665.17 289.563,680.996 267.782,680.996 C246,680.996 228.334,665.17 228.334,645.644 C228.334,626.106 246,610.275 267.782,610.275 C289.563,610.275 307.22,626.106 307.22,645.644" fill="#fff"/>
    <path d="M288.186,682.362 C288.186,692.879 279.053,701.401 267.782,701.401 C256.512,701.401 247.379,692.879 247.379,682.362 C247.379,671.842 256.512,663.325 267.782,663.325 C279.053,663.325 288.186,671.842 288.186,682.362" fill="#fff"/>
    <path d="M234.656,642.064 L202.729,623.572 L201.729,622.988 L201.829,622.059 L205.273,590.72 L204.952,622.248 L204.057,620.735 L238.768,633.218 L234.656,642.064" fill="#fff"/>
    <path d="M234.635,649.718 L191.604,648.818 L190.25,648.789 L189.829,647.781 L175.674,613.826 L193.124,646.209 L191.35,645.172 L233.852,638.361 L234.635,649.718" fill="#fff"/>
    <path d="M237.305,664.296 L191.445,671.637 L190.002,671.866 L189.364,670.876 L167.798,637.561 L192.556,668.579 L190.477,667.818 L234.277,652.392 L237.305,664.296" fill="#fff"/>
    <path d="M245.658,676.166 L205.941,700.244 L204.694,701.001 L203.729,700.325 L171.205,677.587 L205.82,696.99 L203.609,697.077 L238.373,666.273 L245.658,676.166" fill="#fff"/>
    <path d="M296.792,633.218 L331.508,620.735 L330.607,622.248 L330.296,590.72 L333.729,622.059 L333.834,622.988 L332.829,623.572 L300.908,642.064 L296.792,633.218" fill="#fff"/>
    <path d="M301.712,638.361 L344.209,645.172 L342.44,646.209 L359.891,613.826 L345.309,648.789 L343.957,648.818 L300.929,649.718 L301.712,638.361" fill="#fff"/>
    <path d="M301.28,652.392 L345.088,667.818 L342.997,668.579 L367.765,637.561 L346.199,670.876 L345.557,671.866 L344.114,671.637 L298.26,664.296 L301.28,652.392" fill="#fff"/>
    <path d="M297.191,666.273 L331.949,697.077 L329.745,696.99 L364.358,677.587 L331.829,700.325 L330.864,701.001 L329.617,700.244 L289.906,676.166 L297.191,666.273" fill="#fff"/>
    <path d="M266.145,617.023 L266.141,250.607 L272.693,616.957 L266.145,617.023" fill="#fff"/>
  </g>
</svg>
